<svg xmlns="http://www.w3.org/2000/svg" xmlns:xlink="http://www.w3.org/1999/xlink" width="34.439998626708984" height="42" viewBox="0 0 34.439998626708984 42" fill="none">
    <g >
        <path d="M0 0L19.32 0Q25.14 0 28.5 2.85Q31.86 5.7 31.86 10.98Q31.86 13.32 30.36 15.54Q28.86 17.76 26.34 19.38Q30 20.94 32.22 23.76Q34.44 26.58 34.44 29.82Q34.44 35.4 30.72 38.7Q27 42 20.7 42L0 42L0 0ZM18.12 34.74Q21.12 34.74 22.77 33.03Q24.42 31.32 24.42 28.5Q24.42 26.22 22.41 24.78Q20.4 23.34 16.38 23.34L9.9 23.34L9.9 34.74L18.12 34.74ZM16.68 17.52Q19.14 17.52 20.52 15.81Q21.9 14.1 21.9 12.06Q21.9 9.66 20.46 7.95Q19.02 6.24 15.6 6.24L9.9 6.24L9.9 17.52L16.68 17.52Z">
        </path>
    </g>
</svg>
