<svg t="1726810504696" class="icon" viewBox="0 0 1024 1024" version="1.1" xmlns="http://www.w3.org/2000/svg" p-id="76552" width="48" height="48"><path d="M387.242667 130.453333c44.181333-14.08 76.8 29.418667 65.216 65.834667a298.389333 298.389333 0 0 0-13.994667 90.624c0 164.906667 133.696 298.624 298.602667 298.624 31.68 0 62.122667-4.906667 90.645333-13.994667 36.416-11.605333 79.893333 21.013333 65.834667 65.216C841.770667 799.424 689.493333 917.333333 509.546667 917.333333 287.061333 917.333333 106.666667 736.96 106.666667 514.432 106.666667 334.506667 224.576 182.229333 387.242667 130.453333zM356.48 236.16C258.389333 290.197333 192 394.602667 192 514.432 192 689.813333 334.186667 832 509.568 832c119.829333 0 224.234667-66.389333 278.293333-164.48-16.64 2.197333-33.578667 3.349333-50.773333 3.349333-212.053333 0-383.957333-171.904-383.957333-383.936 0-17.216 1.152-34.176 3.349333-50.794666z"></path></svg>