<svg xmlns="http://www.w3.org/2000/svg" xmlns:xlink="http://www.w3.org/1999/xlink" width="71.64000129699707" height="42.779998779296875" viewBox="0 0 71.64000129699707 42.779998779296875" fill="none">
    <g >
        <path d="M35.94 0.779999L35.94 42.78L26.04 42.78L26.04 25.02L9.9 25.02L9.9 42.78L0 42.78L0 0.779999L9.9 0.779999L9.9 16.92L26.04 16.92L26.04 0.779999L35.94 0.779999ZM44.82 35.1Q49.5 31.08 53.04 27.66Q56.58 24.24 59.4 20.37Q62.22 16.5 62.22 13.62Q62.22 10.68 60.06 9.03Q57.9 7.38 54.42 7.38Q51.96 7.38 49.05 8.34Q46.14 9.3 43.32 11.04L43.32 4.08Q46.2 2.28 49.83 1.14Q53.46 0 56.76 0Q63.48 0 67.41 3.27Q71.34 6.54 71.34 12.18Q71.34 16.2 68.64 20.79Q65.94 25.38 62.46 28.95Q58.98 32.52 54.18 36.78L52.44 35.58L71.64 35.58L71.64 42.78L42.54 42.78L42.54 37.02L44.82 35.1Z">
        </path>
    </g>
</svg>
