<svg xmlns="http://www.w3.org/2000/svg" xmlns:xlink="http://www.w3.org/1999/xlink" width="70.8600025177002" height="43.55999755859375" viewBox="0 0 70.8600025177002 43.55999755859375" fill="none">
    <g >
        <path d="M35.94 0.779999L35.94 42.78L26.04 42.78L26.04 25.02L9.9 25.02L9.9 42.78L0 42.78L0 0.779999L9.9 0.779999L9.9 16.92L26.04 16.92L26.04 0.779999L35.94 0.779999ZM55.86 43.56Q49.56 43.56 43.62 40.8L43.62 32.52Q46.26 34.44 49.29 35.37Q52.32 36.3 55.32 36.3Q58.68 36.3 60.48 34.83Q62.28 33.36 62.28 30.48Q62.28 27.24 60.06 25.59Q57.84 23.94 54.18 23.94L48.18 23.94L48.18 17.88L53.58 17.88Q57.18 17.88 59.16 16.29Q61.14 14.7 61.14 11.88Q61.14 9.54 59.34 8.22Q57.54 6.9 54.54 6.9Q52.38 6.9 49.74 7.47Q47.1 8.04 44.94 9.06L44.94 2.58Q47.34 1.32 50.31 0.66Q53.28 0 56.22 0Q62.46 0 66.12 2.97Q69.78 5.94 69.84 11.04Q69.84 14.22 68.16 16.74Q66.48 19.26 63.36 20.7Q66.96 22.02 68.91 24.72Q70.86 27.42 70.86 31.08Q70.86 34.74 69.03 37.56Q67.2 40.38 63.78 41.97Q60.36 43.56 55.86 43.56Z">
        </path>
    </g>
</svg>
