<svg xmlns="http://www.w3.org/2000/svg" xmlns:xlink="http://www.w3.org/1999/xlink" width="72.60000038146973" height="42" viewBox="0 0 72.60000038146973 42" fill="none">
    <g >
        <path d="M35.94 0L35.94 42L26.04 42L26.04 24.24L9.9 24.24L9.9 42L0 42L0 0L9.9 0L9.9 16.14L26.04 16.14L26.04 0L35.94 0ZM68.04 34.44L68.04 42L59.58 42L59.58 34.44L41.04 34.44L41.04 28.8L57.6 0L68.04 0L68.04 27.6L72.6 27.6L72.6 34.44L68.04 34.44ZM59.76 27.6L59.76 9.9L49.62 27.6L59.76 27.6Z">
        </path>
    </g>
</svg>
