<svg xmlns="http://www.w3.org/2000/svg" xmlns:xlink="http://www.w3.org/1999/xlink" width="71.45999336242676" height="42.779998779296875" viewBox="0 0 71.45999336242676 42.779998779296875" fill="none">
    <g >
        <path d="M35.94 0L35.94 42L26.04 42L26.04 24.24L9.9 24.24L9.9 42L0 42L0 0L9.9 0L9.9 16.14L26.04 16.14L26.04 0L35.94 0ZM56.28 42.78Q49.38 42.78 43.44 40.74L43.44 32.64Q49.26 35.22 54.72 35.22Q58.62 35.22 60.78 33.15Q62.94 31.08 62.94 27.9Q62.94 24.66 60.66 22.62Q58.38 20.58 54.84 20.58Q50.4 20.58 44.94 22.86L45.54 0L69.36 0L69.36 7.2L53.64 7.2L53.4 15.66Q55.86 15.36 58.62 15.36Q62.46 15.36 65.37 16.95Q68.28 18.54 69.87 21.48Q71.46 24.42 71.46 28.32Q71.46 32.7 69.57 35.97Q67.68 39.24 64.26 41.01Q60.84 42.78 56.28 42.78Z">
        </path>
    </g>
</svg>
