<svg xmlns="http://www.w3.org/2000/svg" xmlns:xlink="http://www.w3.org/1999/xlink" width="72.11999702453613" height="43.55999755859375" viewBox="0 0 72.11999702453613 43.55999755859375" fill="none">
    <g >
        <path d="M35.94 0.779999L35.94 42.78L26.04 42.78L26.04 25.02L9.9 25.02L9.9 42.78L0 42.78L0 0.779999L9.9 0.779999L9.9 16.92L26.04 16.92L26.04 0.779999L35.94 0.779999ZM42.3 23.4Q42.3 17.04 44.25 11.76Q46.2 6.48 50.31 3.24Q54.42 0 60.66 0Q62.94 0 65.28 0.330002Q67.62 0.66 69.36 1.2L69.36 8.4Q65.52 7.2 62.1 7.2Q57.48 7.2 55.08 9.72Q52.68 12.24 51.84 16.5Q55.56 14.34 60.06 14.34Q66.12 14.34 69.12 17.97Q72.12 21.6 72.12 28.32Q72.12 35.4 68.28 39.48Q64.44 43.56 57.6 43.56Q49.14 43.56 45.72 37.92Q42.3 32.28 42.3 23.4ZM63.96 28.44Q63.96 24.54 62.28 22.35Q60.6 20.16 57.78 20.16Q54.9 20.16 53.25 22.35Q51.6 24.54 51.6 28.44Q51.6 32.4 53.28 34.5Q54.96 36.6 57.78 36.6Q60.6 36.6 62.28 34.5Q63.96 32.4 63.96 28.44Z">
        </path>
    </g>
</svg>
