<svg t="1726810328687" class="icon" viewBox="0 0 1024 1024" version="1.1" xmlns="http://www.w3.org/2000/svg" p-id="70817" width="48" height="48"><path d="M193.3 512c0-26.8-24.7-48.2-56.8-48.2H89.9C58.3 463.8 32 485.2 32 512c0 26.8 25.7 48.2 57.9 48.2h46.6c31.6 0 56.8-20.9 56.8-48.2z m318.4-317.3c26.8 0 48.2-25.7 48.2-57.9V89.6c0-31.6-21.4-57.9-48.2-57.9-26.8 0-48.2 25.7-48.2 57.9v47.2c0 31.6 21.4 57.9 48.2 57.9z m-320 569.2L159 796.6c-22.5 22.5-25.2 55.7-6.4 75 8.6 8 19.8 12.3 31.6 12.3 15 0 31.1-6.4 43.4-18.8l32.7-32.7c10.7-10.7 17.2-24.1 18.8-37.5 1.6-14.5-2.7-27.9-12.3-37-19.3-19.2-53.1-16.5-75.1 6z m-33.2-536.5l32.7 32.7c12.3 12.3 28.4 18.8 43.4 18.8 11.8 0 23-4.3 31.1-12.3 8-8 12.3-19.3 12.3-31.6 0-15.5-7-31.1-18.8-43.4-2.7-3.2-12.3-12.3-20.4-20.4l-12.8-13c-10.7-10.7-24.1-17.2-37.5-18.8-14.5-1.6-27.9 2.7-37 12.3-9.6 9.7-13.9 22.5-12.3 37.5 2.1 14.1 9.1 27.5 19.3 38.2z m629.8 52c15.5 0 31.6-7 43.4-19.3l32.7-32.7c22.5-22.5 25.2-56.3 6.4-75-9.6-9.6-22.5-13.9-37-12.3-13.9 1.6-26.8 8-37.5 18.8l-25.7 25.7-7 7c-22.5 22.5-25.2 55.7-6.4 75 8.1 7.9 18.8 12.8 31.1 12.8z m43.4 484.5c-22.5-22.5-56.3-25.2-75-6.4-18.8 18.8-15.5 52.5 6.4 74.5l32.7 32.7c12.3 12.3 28.4 18.8 43.4 18.8 11.8 0 23-4.3 31.6-12.3 18.8-18.8 15.5-52.5-7-75l-32.1-32.3z m-320 66c-26.8 0-48.2 25.7-48.2 57.9v46.6c0 31.6 21.4 57.9 48.2 57.9 26.8 0 48.2-25.7 48.2-57.9v-47.2c0.1-31.6-21.4-57.3-48.2-57.3z m422.4-366.1H888c-31.6 0-57.4 21.4-57.4 48.2 0 26.8 25.7 48.2 57.4 48.2h46.1c31.6 0 57.9-21.4 57.9-48.2-0.5-26.8-26.3-48.2-57.9-48.2zM511.7 243.5c-147.9 0-268.5 120.6-268.5 268.5s120.6 268.5 268.5 268.5S780.2 659.9 780.2 512c0.1-147.9-120.5-268.5-268.5-268.5z m0 445.4c-97.6 0-176.9-79.3-176.9-176.9s79.3-176.9 176.9-176.9c97.6 0 176.9 79.3 176.9 176.9s-79.3 176.9-176.9 176.9z m0 0"></path></svg>