<svg t="1726476043286" class="icon" viewBox="0 0 1024 1024" version="1.1" xmlns="http://www.w3.org/2000/svg" p-id="19448" width="48" height="48"><path d="M1013.772434 875.593143H266.252434c-5.632 0-10.24 5.485714-10.24 12.214857v85.284571c0 6.729143 4.608 12.214857 10.24 12.214858h747.52c5.632 0 10.24-5.485714 10.24-12.214858v-85.284571c0-6.729143-4.608-12.214857-10.24-12.214857z m0-790.235429H266.252434c-5.632 0-10.24 5.485714-10.24 12.141715V182.857143c0 6.729143 4.608 12.214857 10.24 12.214857h747.52c5.632 0 10.24-5.485714 10.24-12.214857V97.499429c0-6.656-4.608-12.141714-10.24-12.141715z m0 395.117715H266.252434c-5.632 0-10.24 5.485714-10.24 12.214857v85.284571c0 6.729143 4.608 12.214857 10.24 12.214857h747.52c5.632 0 10.24-5.485714 10.24-12.214857V492.690286c0-6.729143-4.608-12.214857-10.24-12.214857zM160.049006 790.235429H5.27872A5.485714 5.485714 0 0 0 0.012434 795.794286v47.323428c0 3.072 2.413714 5.558857 5.339429 5.558857h96.548571v28.525715H54.284434a5.485714 5.485714 0 0 0-5.339428 5.558857v47.323428c0 3.072 2.413714 5.558857 5.339428 5.558858h47.542857v29.988571H5.351863a5.485714 5.485714 0 0 0-5.266286 5.485714v47.323429c0 3.072 2.413714 5.558857 5.339429 5.558857h154.697143c2.925714 0 5.266286-2.486857 5.266285-5.558857V795.794286a5.485714 5.485714 0 0 0-5.266285-5.558857zM5.27872 61.220571h50.688V228.205714c0 2.998857 2.340571 5.558857 5.339429 5.558857h53.321142c2.925714 0 5.339429-2.56 5.339429-5.558857V11.117714A10.971429 10.971429 0 0 0 109.361006 0H5.351863A5.485714 5.485714 0 0 0 0.012434 5.558857v50.102857c0 3.072 2.413714 5.558857 5.339429 5.558857z m154.697143 333.897143H5.27872A5.485714 5.485714 0 0 0 0.012434 400.676571v50.102858c0 3.072 2.413714 5.558857 5.339429 5.558857H96.561006L2.791863 564.443429A11.849143 11.849143 0 0 0 0.012434 571.977143v51.346286c0 3.072 2.413714 5.558857 5.339429 5.558857h154.697143c2.925714 0 5.266286-2.486857 5.266285-5.558857v-50.102858a5.485714 5.485714 0 0 0-5.266285-5.558857H68.76672l93.696-108.105143a11.849143 11.849143 0 0 0 2.779429-7.533714v-51.346286a5.485714 5.485714 0 0 0-5.266286-5.558857z"></path></svg>